<?xml version="1.0" encoding="UTF-8" standalone="no"?>
<svg xmlns="http://www.w3.org/2000/svg" width="324" height="62" viewBox="16 44 324 62">
  <rect x="16" y="44" width="324" height="62" fill="#000000"/>
<g
     id="mark">
    <g
       id="chevrons"
       fill="none"
       stroke-linecap="round"
       stroke-linejoin="round"
       transform="matrix(0.86815737,0,0,0.80541145,7.213281,16.657103)">
      <path
         d="m 30,66 9,9 -9,9"
         stroke="#9d85ff"
         stroke-width="4.5"
         opacity="0.4"
         id="path7"
         style="opacity:0.55" />
      <path
         d="m 41,66 9,9 -9,9"
         stroke="#9d85ff"
         stroke-width="4.5"
         opacity="0.85"
         id="path9"
         style="opacity:1" />
    </g>
    <g
       id="event-1"
       fill="#9d85ff"
       transform="matrix(0.86815737,0,0,0.80541145,7.213281,16.657103)">
      <path
         id="rect12"
         d="m 63,67.5 c 0.554,0 1,0.446 1,1 v 13 c 0,0.554 -0.446,1 -1,1 -0.554,0 -1,-0.446 -1,-1 v -13 c 0,-0.554 0.446,-1 1,-1 z" />
      <path
         id="rect12-9"
         style="stroke-width:0.725394"
         d="m 58.929443,71.215591 c 0.554,0 1,0.446 1,1 v 5.892951 c 0,0.554 -0.446,1 -1,1 -0.554,0 -1,-0.446 -1,-1 v -5.892951 c 0,-0.554 0.446,-1 1,-1 z" />
      <path
         id="rect12-9-1"
         style="stroke-width:0.621275"
         d="m 82.558159,72.158318 c 0.554,0 1,0.446 1,1 v 3.789742 c 0,0.554 -0.446,1 -1,1 -0.554,0 -1,-0.446 -1,-1 v -3.789742 c 0,-0.554 0.446,-1 1,-1 z" />
      <path
         id="rect14"
         d="m 67,62 c 0.554,0 1,0.446 1,1 v 24 c 0,0.554 -0.446,1 -1,1 -0.554,0 -1,-0.446 -1,-1 V 63 c 0,-0.554 0.446,-1 1,-1 z" />
      <path
         id="rect16"
         style="stroke-width:0.951397"
         d="m 71,58.568405 c 0.554,0 1,0.446 1,1 v 30.58564 c 0,0.554 -0.446,1 -1,1 -0.554,0 -1,-0.446 -1,-1 v -30.58564 c 0,-0.554 0.446,-1 1,-1 z" />
      <path
         id="rect18"
         d="m 75,64 c 0.554,0 1,0.446 1,1 v 20 c 0,0.554 -0.446,1 -1,1 -0.554,0 -1,-0.446 -1,-1 V 65 c 0,-0.554 0.446,-1 1,-1 z" />
      <path
         id="rect20"
         d="m 79,69 c 0.554,0 1,0.446 1,1 v 10 c 0,0.554 -0.446,1 -1,1 -0.554,0 -1,-0.446 -1,-1 V 70 c 0,-0.554 0.446,-1 1,-1 z" />
    </g>
    <path
       id="event-1-underline"
       style="opacity:0.5;fill:#9d85ff;stroke-width:0.836196"
       d="M 60.170884,94.782013 H 77.53403 c 0.480959,0 0.868157,0.359213 0.868157,0.805411 0,0.446198 -0.387198,0.805412 -0.868157,0.805412 H 60.170884 c -0.480959,0 -0.868157,-0.359214 -0.868157,-0.805412 0,-0.446198 0.387198,-0.805411 0.868157,-0.805411 z" />
    <g
       id="silence-between"
       fill="none"
       stroke="#5d5775"
       stroke-width="1.2"
       transform="matrix(0.86815737,0,0,0.80541145,9.444599,16.657103)">
      <path
         id="rect24"
         d="m 87,73 h 2 c 0.554,0 1,0.446 1,1 v 2 c 0,0.554 -0.446,1 -1,1 h -2 c -0.554,0 -1,-0.446 -1,-1 v -2 c 0,-0.554 0.446,-1 1,-1 z" />
      <path
         id="rect26"
         d="m 94,73 h 2 c 0.554,0 1,0.446 1,1 v 2 c 0,0.554 -0.446,1 -1,1 h -2 c -0.554,0 -1,-0.446 -1,-1 v -2 c 0,-0.554 0.446,-1 1,-1 z" />
    </g>
    <g
       id="event-2"
       fill="#2dd4bf"
       transform="matrix(0.86815737,0,0,0.80541145,8.949595,16.657103)">
      <path
         id="rect29"
         d="m 103,69.5 c 0.554,0 1,0.446 1,1 v 9 c 0,0.554 -0.446,1 -1,1 -0.554,0 -1,-0.446 -1,-1 v -9 c 0,-0.554 0.446,-1 1,-1 z" />
      <path
         id="rect31"
         d="m 107,65 c 0.554,0 1,0.446 1,1 v 18 c 0,0.554 -0.446,1 -1,1 -0.554,0 -1,-0.446 -1,-1 V 66 c 0,-0.554 0.446,-1 1,-1 z" />
      <path
         id="rect33"
         d="m 111,59 c 0.554,0 1,0.446 1,1 v 30 c 0,0.554 -0.446,1 -1,1 -0.554,0 -1,-0.446 -1,-1 V 60 c 0,-0.554 0.446,-1 1,-1 z" />
      <path
         id="rect35"
         d="m 115,57 c 0.554,0 1,0.446 1,1 v 34 c 0,0.554 -0.446,1 -1,1 -0.554,0 -1,-0.446 -1,-1 V 58 c 0,-0.554 0.446,-1 1,-1 z" />
      <path
         id="rect37"
         style="stroke-width:0.999766"
         d="m 119,62.5 c 0.554,0 1,0.446 1,1 v 23 c 0,0.554 -0.446,1 -1,1 -0.554,0 -1,-0.446 -1,-1 v -23 c 0,-0.554 0.446,-1 1,-1 z" />
      <path
         id="rect39"
         style="stroke-width:0.999766"
         d="m 123,68 c 0.554,0 1,0.446 1,1 v 12 c 0,0.554 -0.446,1 -1,1 -0.554,0 -1,-0.446 -1,-1 V 69 c 0,-0.554 0.446,-1 1,-1 z" />
      <path
         id="rect39-2"
         style="stroke-width:0.688293"
         d="m 126.50001,71.679863 c 0.554,0 1,0.446 1,1 v 4.632455 c 0,0.554 -0.446,1 -1,1 -0.554,0 -1,-0.446 -1,-1 v -4.632455 c 0,-0.554 0.446,-1 1,-1 z" />
    </g>
    <path
       id="event-2-underline"
       style="opacity:0.55;fill:#2dd4bf;stroke-width:0.836196"
       d="m 96.6335,94.782013 h 20.83578 c 0.48096,0 0.86815,0.359213 0.86815,0.805411 0,0.446198 -0.38719,0.805412 -0.86815,0.805412 H 96.6335 c -0.480959,0 -0.868157,-0.359214 -0.868157,-0.805412 0,-0.446198 0.387198,-0.805411 0.868157,-0.805411 z" />
    <g
       id="silence-trailing"
       fill="none"
       stroke="#5d5775"
       stroke-width="1.2"
       transform="matrix(0.86815737,0,0,0.80541145,9.307461,16.657103)">
      <path
         id="rect43"
         d="m 131.24548,73 h 2 c 0.554,0 1,0.446 1,1 v 2 c 0,0.554 -0.446,1 -1,1 h -2 c -0.554,0 -1,-0.446 -1,-1 v -2 c 0,-0.554 0.446,-1 1,-1 z" />
    </g>
  </g>
<g
     id="wordmark">
    <g
       aria-label="audi"
       id="word-audi"
       style="font-weight:600;font-size:50px;font-family:Inter, 'Segoe UI', Helvetica, Arial, sans-serif;letter-spacing:-1;fill:#f2f0fa">
      <path
         d="m 144.98633,89.943199 c 4.24804,0 6.83594,-1.977539 8.03222,-4.321289 h 0.24415 v 3.759766 h 6.0791 V 71.144371 c 0,-7.275391 -6.00586,-9.399414 -11.13282,-9.399414 -5.46875,0 -9.96093,2.319336 -11.57226,7.128906 l 5.88379,1.196289 c 0.65918,-1.80664 2.53906,-3.442383 5.71289,-3.442383 3.10058,0 4.76074,1.5625 4.76074,4.223633 v 0.122071 c 0,1.879882 -2.00195,1.953125 -6.73828,2.46582 -5.27344,0.561523 -10.40039,2.124023 -10.40039,8.276367 0,5.371094 3.93066,8.227539 9.13086,8.227539 z m 1.63574,-4.711914 c -2.68555,0 -4.61426,-1.220703 -4.61426,-3.588867 0,-2.490234 2.14844,-3.540039 5.00489,-3.930664 1.63574,-0.219727 5.17578,-0.65918 6.03027,-1.342774 v 3.222657 c 0,3.027343 -2.51465,5.639648 -6.4209,5.639648 z"
         id="path62" />
      <path
         d="m 174.43066,89.723473 c 3.95508,0 6.81153,-1.904297 8.44727,-5.810547 l 0.0488,5.46875 h 6.03027 V 62.086754 h -6.37207 v 15.991211 c 0,3.955078 -2.44141,6.25 -5.81055,6.25 -3.32031,0 -5.34668,-2.197266 -5.34668,-5.859375 V 62.086754 h -6.34765 v 17.358398 c 0,6.567383 3.73535,10.278321 9.35058,10.278321 z"
         id="path64" />
      <path
         d="m 204.75391,89.869957 c 4.71191,0 6.81152,-2.832031 7.8125,-4.80957 h 0.39062 v 4.321289 h 6.22559 V 53.004723 h -6.34766 v 13.598632 h -0.26855 c -0.97657,-1.928711 -2.97852,-4.858398 -7.83692,-4.858398 -6.29883,0 -11.23047,4.956055 -11.23047,14.038086 0,8.959961 4.78516,14.086914 11.25489,14.086914 z m 1.73339,-5.224609 c -4.24804,0 -6.49414,-3.759766 -6.49414,-8.886719 0,-5.078125 2.19727,-8.789063 6.49414,-8.789063 4.17481,0 6.46973,3.466797 6.46973,8.789063 0,5.322265 -2.34375,8.886719 -6.46973,8.886719 z"
         id="path66" />
      <path
         d="m 224.89648,89.381676 h 6.34766 V 62.086754 h -6.34766 z m 3.17383,-31.152344 c 2.02637,0 3.71094,-1.5625 3.71094,-3.491211 0,-1.928711 -1.68457,-3.466797 -3.71094,-3.466797 -2.02636,0 -3.68652,1.538086 -3.68652,3.466797 0,1.928711 1.66016,3.491211 3.68652,3.491211 z"
         id="path68" />
    </g>
    <path
       id="split-cursor"
       transform="translate(-1.4536,0)"
       d="m 240.588,52.804442 c 0,-1.363731 0.66667,-1.534198 2,-1.534198 1.33333,0 2,0.170467 2,1.534198 v 17.592137 l -0.9,1.329637 0.9,1.329638 v 17.592135 c 0,1.363731 -0.66667,1.534198 -2,1.534198 -1.33333,0 -2,-0.170467 -2,-1.534198 V 73.055854 l 0.9,-1.329638 -0.9,-1.329637 z"
       fill="#9d85ff"
       style="fill:#00ffff;fill-opacity:1;stroke-width:1.01134" />
    <g
       aria-label="tok"
       id="word-tok"
       style="font-weight:700;font-size:50px;font-family:Inter, 'Segoe UI', Helvetica, Arial, sans-serif;letter-spacing:-1;fill:#9d85ff">
      <path
         d="m 266.6748,62.086754 h -5.10253 v -6.494141 h -7.32422 v 6.494141 h -3.75977 v 5.59082 h 3.75977 v 14.355469 c 0,5.004883 2.97851,7.739258 8.44726,7.739258 1.46485,0 3.10059,-0.170899 4.73633,-0.65918 l -1.0498,-5.493164 c -0.53711,0.146484 -1.75782,0.317383 -2.31934,0.317383 -1.78223,0 -2.49023,-0.805664 -2.49023,-2.539063 V 67.677574 h 5.10253 z"
         id="path71" />
      <path
         d="m 282.1543,89.918785 c 8.20312,0 13.35449,-5.664062 13.35449,-14.0625 0,-8.447266 -5.15137,-14.111328 -13.35449,-14.111328 -8.22754,0 -13.3545,5.664062 -13.3545,14.111328 0,8.398438 5.12696,14.0625 13.3545,14.0625 z m 0,-5.761719 c -3.90625,0 -5.88379,-3.564453 -5.88379,-8.325195 0,-4.833984 1.97754,-8.325195 5.88379,-8.325195 3.90625,0 5.9082,3.515625 5.9082,8.325195 0,4.760742 -2.00195,8.325195 -5.9082,8.325195 z"
         id="path73" />
      <path
         d="m 299.61133,89.381676 h 7.32422 v -8.764649 l 2.09961,-2.368164 7.61718,11.132813 h 8.61817 l -10.71778,-15.454102 10.20508,-11.84082 h -8.47168 l -8.93554,10.498047 h -0.41504 V 53.004723 h -7.32422 z"
         id="path75" />
    </g>
  </g>
</svg>
